<svg id="Layer_1" data-name="Layer 1" xmlns="http://www.w3.org/2000/svg" viewBox="0 0 735.65 185.9"><path d="M82,406.71c-1.05,1.22-2.26,2.59-3.4,4-.33.41-.74,1.09-.6,1.47.92,2.6-.28,4.74-1.42,6.83-1.41,2.61-3.13,5.05-4.59,7.64A26.7,26.7,0,0,0,69.56,432c-1.11,3.74,1,5.87,4.75,4.91,5.94-1.53,11.82-3.28,17.78-4.71a57.07,57.07,0,0,1,8.07-1,5.77,5.77,0,0,1,3,.28c3.33,1.73,6.49.42,9.71-.24a4.08,4.08,0,0,1,1.92-.08c-2,1.34-4.1,2.66-6.11,4.05a2.81,2.81,0,0,0-1.14,1.38,14.06,14.06,0,0,1-6.88,8.49c-4.8,2.82-9.79,5.32-14.63,8.08a65.43,65.43,0,0,0-6.79,4.5c-.72.54-1.58,1.82-1.38,2.42a3.25,3.25,0,0,0,2.37,1.76,61,61,0,0,0,10.2.13c5-.5,9.45.38,12.92,4.29a6.86,6.86,0,0,1,1.76,2.44c.87,3.37,3.65,4.81,6.14,6.59a4.42,4.42,0,0,1,1.41,1.52c-2.09-.37-4.18-.78-6.29-1.09a2.8,2.8,0,0,0-1.78.21c-5.68,3.75-12,4.55-18.54,3.88a43.15,43.15,0,0,1-10.5-2.47,27.38,27.38,0,0,0-20.52.48,46.43,46.43,0,0,1-9,2.31c-5.57,1-11.91-5.72-8.66-12,.35-.68.58-1.4.88-2.1a5.86,5.86,0,0,0-.43-5.93,27,27,0,0,1-2.73-5.83c-2.39-6.92-.24-12.81,6.2-16.25a14,14,0,0,0,6.47-7.12c1-2.26,2-4.49,3.08-6.73A25.81,25.81,0,0,1,67.41,410C72.19,408.53,77.19,407.77,82,406.71Z" transform="translate(-34.18 -382.67)"/><path d="M161,480.71c-1,1.22-2.26,2.59-3.4,4-.33.41-.74,1.09-.6,1.47.92,2.6-.28,4.74-1.42,6.83-1.41,2.61-3.13,5.05-4.59,7.64a26.7,26.7,0,0,0-2.44,5.33c-1.11,3.74,1,5.87,4.75,4.91,5.94-1.53,11.82-3.28,17.78-4.71a57.07,57.07,0,0,1,8.07-1,5.77,5.77,0,0,1,3,.28c3.33,1.73,6.49.42,9.71-.24a4.08,4.08,0,0,1,1.92-.08c-2,1.34-4.1,2.66-6.11,4.05a2.81,2.81,0,0,0-1.14,1.38,14.06,14.06,0,0,1-6.88,8.49c-4.8,2.82-9.79,5.32-14.63,8.08a65.43,65.43,0,0,0-6.79,4.5c-.72.54-1.58,1.82-1.38,2.42a3.25,3.25,0,0,0,2.37,1.76,61,61,0,0,0,10.2.13c5-.5,9.45.38,12.92,4.29a6.86,6.86,0,0,1,1.76,2.44c.87,3.37,3.65,4.81,6.14,6.59a4.42,4.42,0,0,1,1.41,1.52c-2.09-.37-4.18-.78-6.29-1.09a2.8,2.8,0,0,0-1.78.21c-5.68,3.75-12,4.55-18.54,3.88a43.15,43.15,0,0,1-10.5-2.47,27.38,27.38,0,0,0-20.52.48,46.43,46.43,0,0,1-9,2.31c-5.57,1-11.91-5.72-8.66-12,.35-.68.58-1.4.88-2.1a5.86,5.86,0,0,0-.43-5.93,27,27,0,0,1-2.73-5.83c-2.39-6.92-.24-12.81,6.2-16.25a14,14,0,0,0,6.47-7.12c1-2.26,2-4.49,3.08-6.73A25.81,25.81,0,0,1,146.41,484C151.19,482.53,156.19,481.77,161,480.71Z" transform="translate(-34.18 -382.67)"/><path d="M251.52,394.54c-1.4.81-3,1.7-4.54,2.67-.44.28-1.06.79-1,1.19,0,2.75-1.83,4.38-3.6,6-2.2,2-4.63,3.72-6.85,5.69a26.18,26.18,0,0,0-4.07,4.22c-2.29,3.16-1,5.87,2.86,6.2,6.11.52,12.24.82,18.34,1.44a58.15,58.15,0,0,1,8,1.69,5.69,5.69,0,0,1,2.73,1.25c2.57,2.73,6,2.55,9.25,3a4.25,4.25,0,0,1,1.83.56c-2.36.6-4.74,1.16-7.1,1.81a2.82,2.82,0,0,0-1.53.92,14,14,0,0,1-9.3,5.74c-5.46,1.08-11,1.79-16.48,2.8a67.17,67.17,0,0,0-7.9,2c-.85.27-2.09,1.2-2.09,1.83a3.22,3.22,0,0,0,1.64,2.44,60.85,60.85,0,0,0,9.59,3.49c4.93,1.2,8.8,3.48,10.78,8.33a6.91,6.91,0,0,1,.86,2.88c-.29,3.46,1.85,5.75,3.62,8.24a4.49,4.49,0,0,1,.82,1.91c-1.85-1-3.69-2.12-5.58-3.11a2.77,2.77,0,0,0-1.74-.39c-6.6,1.66-12.86.32-18.79-2.47a42.89,42.89,0,0,1-9.09-5.8,27.39,27.39,0,0,0-19.53-6.32,46.19,46.19,0,0,1-9.22-.78c-5.59-.9-9.35-9.34-4.2-14.21.55-.52,1-1.13,1.53-1.7a5.85,5.85,0,0,0,1.55-5.74,27.35,27.35,0,0,1-.65-6.39c0-7.32,4-12.18,11.23-13.29a14,14,0,0,0,8.45-4.58c1.69-1.81,3.41-3.57,5.13-5.34,5.56-5.71,12.5-8.13,20.27-7.85C241.65,393,246.62,394,251.52,394.54Z" transform="translate(-34.18 -382.67)"/><path d="M301.63,490.49c-1.4.81-3,1.7-4.55,2.67-.44.28-1.05.79-1.05,1.19,0,2.75-1.83,4.38-3.59,6-2.2,2-4.63,3.72-6.86,5.69a26.54,26.54,0,0,0-4.06,4.22c-2.29,3.16-1,5.87,2.86,6.2,6.11.52,12.24.82,18.33,1.43a59.53,59.53,0,0,1,8,1.7,5.73,5.73,0,0,1,2.73,1.25c2.57,2.73,6,2.55,9.24,3a4.29,4.29,0,0,1,1.84.56c-2.37.6-4.74,1.16-7.1,1.81a2.85,2.85,0,0,0-1.54.92,14,14,0,0,1-9.29,5.74c-5.47,1.08-11,1.79-16.48,2.8a65.26,65.26,0,0,0-7.9,2c-.85.27-2.09,1.2-2.1,1.83a3.24,3.24,0,0,0,1.65,2.44,60.49,60.49,0,0,0,9.59,3.49c4.92,1.2,8.79,3.48,10.78,8.33a6.89,6.89,0,0,1,.85,2.88c-.29,3.46,1.86,5.75,3.62,8.24a4.38,4.38,0,0,1,.83,1.91c-1.86-1-3.7-2.12-5.58-3.11a2.8,2.8,0,0,0-1.75-.39c-6.59,1.66-12.85.32-18.78-2.47a42.63,42.63,0,0,1-9.09-5.8,27.39,27.39,0,0,0-19.53-6.32,46.94,46.94,0,0,1-9.22-.78c-5.59-.9-9.35-9.34-4.2-14.21.55-.53,1-1.13,1.53-1.7a5.9,5.9,0,0,0,1.55-5.74,26.83,26.83,0,0,1-.65-6.39c0-7.32,4-12.18,11.22-13.29a14.05,14.05,0,0,0,8.46-4.58c1.69-1.81,3.41-3.57,5.13-5.34a25.82,25.82,0,0,1,20.27-7.85C291.75,489,296.72,489.9,301.63,490.49Z" transform="translate(-34.18 -382.67)"/><path d="M395.26,390.55c-1.46.69-3.13,1.43-4.76,2.26-.46.23-1.12.69-1.15,1.09-.23,2.74-2.21,4.2-4.1,5.64-2.37,1.78-4.95,3.3-7.34,5.06a26.61,26.61,0,0,0-4.42,3.84c-2.56,2.95-1.52,5.77,2.3,6.44,6,1.05,12.12,1.89,18.14,3a57.21,57.21,0,0,1,7.78,2.4,5.71,5.71,0,0,1,2.61,1.48c2.32,2.95,5.74,3.07,8.94,3.79a4.09,4.09,0,0,1,1.78.72c-2.41.38-4.82.74-7.23,1.17a2.86,2.86,0,0,0-1.61.79,14,14,0,0,1-9.77,4.89c-5.54.59-11.11.81-16.66,1.33a64.41,64.41,0,0,0-8,1.3c-.88.19-2.19,1-2.25,1.63A3.22,3.22,0,0,0,370.9,440a62,62,0,0,0,9.24,4.32c4.8,1.63,8.46,4.24,10,9.24a7,7,0,0,1,.59,2.95c-.59,3.42,1.34,5.89,2.88,8.53a4.47,4.47,0,0,1,.66,2c-1.76-1.2-3.5-2.43-5.29-3.58a2.72,2.72,0,0,0-1.7-.55c-6.72,1.07-12.84-.82-18.5-4.12a42.93,42.93,0,0,1-8.54-6.58,27.44,27.44,0,0,0-18.9-8,45.76,45.76,0,0,1-9.11-1.59c-5.48-1.39-8.49-10.12-2.93-14.53.6-.47,1.12-1,1.67-1.55a5.86,5.86,0,0,0,2.06-5.58,27.1,27.1,0,0,1-.09-6.43c.69-7.29,5.07-11.77,12.36-12.24a14,14,0,0,0,8.83-3.82c1.84-1.64,3.71-3.25,5.58-4.86,6-5.2,13.16-7,20.88-6C385.57,388.16,390.43,389.53,395.26,390.55Z" transform="translate(-34.18 -382.67)"/><path d="M436.69,490.56c-1.46.68-3.13,1.42-4.76,2.25-.46.24-1.12.69-1.15,1.09-.23,2.74-2.21,4.21-4.1,5.64-2.37,1.79-4.95,3.3-7.34,5.06a27.08,27.08,0,0,0-4.42,3.84c-2.56,2.95-1.52,5.77,2.3,6.44,6,1,12.12,1.89,18.14,3a58.61,58.61,0,0,1,7.78,2.39,5.73,5.73,0,0,1,2.61,1.49c2.32,3,5.74,3.06,8.94,3.78a4.35,4.35,0,0,1,1.78.72c-2.41.39-4.82.74-7.23,1.18a2.85,2.85,0,0,0-1.61.78,14,14,0,0,1-9.77,4.89c-5.54.6-11.11.82-16.66,1.33a66.31,66.31,0,0,0-8,1.3c-.88.19-2.19,1-2.25,1.64a3.22,3.22,0,0,0,1.42,2.58,62,62,0,0,0,9.24,4.32c4.8,1.63,8.46,4.24,10,9.24a7.07,7.07,0,0,1,.59,2.95c-.59,3.43,1.34,5.89,2.88,8.53a4.51,4.51,0,0,1,.66,2c-1.76-1.2-3.5-2.43-5.29-3.58a2.78,2.78,0,0,0-1.7-.55c-6.72,1.07-12.84-.82-18.5-4.12a42.93,42.93,0,0,1-8.54-6.58,27.39,27.39,0,0,0-18.9-8,46.51,46.51,0,0,1-9.11-1.6c-5.48-1.39-8.49-10.12-2.93-14.52.6-.47,1.12-1,1.67-1.55a5.87,5.87,0,0,0,2.06-5.58,27.12,27.12,0,0,1-.09-6.43c.69-7.29,5.07-11.78,12.36-12.25a14,14,0,0,0,8.83-3.81c1.84-1.65,3.71-3.26,5.58-4.87a25.82,25.82,0,0,1,20.88-6C427,488.16,431.86,489.53,436.69,490.56Z" transform="translate(-34.18 -382.67)"/><path d="M557,388.05c-1.53.53-3.27,1.09-5,1.74-.48.18-1.18.57-1.26,1-.52,2.7-2.64,3.95-4.68,5.17-2.54,1.53-5.26,2.76-7.83,4.26a26.44,26.44,0,0,0-4.8,3.35c-2.86,2.66-2.13,5.57,1.6,6.64,5.9,1.69,11.85,3.17,17.71,5a56.58,56.58,0,0,1,7.49,3.2,5.75,5.75,0,0,1,2.44,1.76c2,3.18,5.38,3.66,8.49,4.71a4.19,4.19,0,0,1,1.69.91c-2.44.12-4.88.21-7.31.4a2.86,2.86,0,0,0-1.69.6,14,14,0,0,1-10.23,3.83c-5.57,0-11.14-.37-16.71-.44a64.94,64.94,0,0,0-8.13.44c-.9.09-2.29.76-2.42,1.38a3.24,3.24,0,0,0,1.15,2.72,61.24,61.24,0,0,0,8.73,5.28c4.6,2.13,7.95,5.11,9,10.25a6.81,6.81,0,0,1,.28,3c-1,3.34.71,6,2,8.78a4.4,4.4,0,0,1,.44,2c-1.62-1.38-3.21-2.79-4.87-4.12a2.77,2.77,0,0,0-1.64-.73c-6.79.35-12.67-2.17-18-6.05a43.34,43.34,0,0,1-7.8-7.45,27.34,27.34,0,0,0-17.94-10,46.66,46.66,0,0,1-8.89-2.55c-5.3-2-7.36-11-1.37-14.75.64-.41,1.22-.92,1.83-1.37a5.88,5.88,0,0,0,2.63-5.33,27.61,27.61,0,0,1,.6-6.4c1.45-7.18,6.28-11.17,13.59-10.87a14,14,0,0,0,9.18-2.85c2-1.45,4-2.85,6.07-4.25a25.82,25.82,0,0,1,21.4-3.77C547.57,384.64,552.26,386.52,557,388.05Z" transform="translate(-34.18 -382.67)"/><path d="M587.54,491.88c-1.52.53-3.26,1.09-5,1.74-.48.19-1.18.57-1.26,1-.52,2.7-2.64,3.95-4.68,5.17-2.54,1.53-5.26,2.77-7.83,4.26a26.86,26.86,0,0,0-4.81,3.35c-2.85,2.66-2.12,5.57,1.61,6.64,5.89,1.7,11.85,3.17,17.71,5a57.22,57.22,0,0,1,7.49,3.21,5.73,5.73,0,0,1,2.44,1.75c2,3.18,5.38,3.66,8.49,4.71a4.25,4.25,0,0,1,1.69.91c-2.44.12-4.88.22-7.31.4a2.86,2.86,0,0,0-1.69.6,14,14,0,0,1-10.23,3.84c-5.57,0-11.14-.38-16.71-.45a65.21,65.21,0,0,0-8.14.44c-.89.1-2.28.76-2.41,1.39a3.26,3.26,0,0,0,1.14,2.71,61,61,0,0,0,8.74,5.28c4.6,2.13,8,5.12,9,10.25a6.81,6.81,0,0,1,.28,3c-.95,3.34.71,6,2,8.79a4.37,4.37,0,0,1,.44,2c-1.62-1.39-3.22-2.79-4.87-4.13a2.76,2.76,0,0,0-1.64-.72c-6.79.35-12.67-2.18-18-6.06a43,43,0,0,1-7.8-7.45,27.45,27.45,0,0,0-17.94-10,45.94,45.94,0,0,1-8.89-2.55c-5.31-2-7.37-11-1.37-14.75.64-.41,1.22-.91,1.83-1.37a5.87,5.87,0,0,0,2.63-5.33,26.56,26.56,0,0,1,.6-6.4c1.45-7.17,6.28-11.17,13.58-10.86a14,14,0,0,0,9.19-2.86c2-1.44,4-2.85,6.07-4.25a25.82,25.82,0,0,1,21.4-3.77C578.16,488.48,582.85,490.36,587.54,491.88Z" transform="translate(-34.18 -382.67)"/><path d="M711.64,391.24c-1.48.66-3.17,1.36-4.81,2.15-.47.23-1.13.67-1.18,1.07-.29,2.73-2.3,4.15-4.23,5.54-2.4,1.74-5,3.2-7.44,4.9a26.27,26.27,0,0,0-4.51,3.75c-2.62,2.89-1.65,5.73,2.16,6.48,6,1.19,12.07,2.16,18.07,3.45a56.35,56.35,0,0,1,7.72,2.57,5.6,5.6,0,0,1,2.58,1.54c2.25,3,5.67,3.19,8.86,4a4.29,4.29,0,0,1,1.76.76c-2.42.33-4.84.63-7.25,1a2.87,2.87,0,0,0-1.63.75,14,14,0,0,1-9.88,4.68c-5.55.47-11.13.56-16.68,1a64.45,64.45,0,0,0-8.07,1.12c-.88.17-2.21.95-2.29,1.58a3.25,3.25,0,0,0,1.37,2.62,61.11,61.11,0,0,0,9.14,4.52c4.76,1.74,8.36,4.43,9.8,9.46a6.91,6.91,0,0,1,.53,3c-.67,3.4,1.21,5.91,2.69,8.59a4.4,4.4,0,0,1,.61,2c-1.73-1.24-3.44-2.51-5.2-3.7a2.73,2.73,0,0,0-1.7-.58c-6.74.92-12.81-1.11-18.39-4.53a43.15,43.15,0,0,1-8.4-6.77,27.36,27.36,0,0,0-18.71-8.44,46.47,46.47,0,0,1-9.08-1.79c-5.45-1.52-8.26-10.32-2.6-14.59.6-.46,1.13-1,1.7-1.52a5.88,5.88,0,0,0,2.18-5.53,27.12,27.12,0,0,1,0-6.43c.85-7.27,5.33-11.66,12.63-12a14,14,0,0,0,8.91-3.62c1.88-1.6,3.78-3.17,5.69-4.74,6.15-5.06,13.31-6.7,21-5.56C702,388.64,706.83,390.12,711.64,391.24Z" transform="translate(-34.18 -382.67)"/><path d="M750.84,492.14c-1.47.65-3.16,1.36-4.8,2.15-.47.22-1.14.66-1.18,1.06-.29,2.74-2.3,4.16-4.23,5.55-2.41,1.73-5,3.19-7.44,4.9a26.68,26.68,0,0,0-4.51,3.74c-2.62,2.89-1.65,5.73,2.16,6.49,6,1.19,12.07,2.16,18.06,3.44a58.36,58.36,0,0,1,7.73,2.57,5.83,5.83,0,0,1,2.58,1.54c2.25,3,5.67,3.2,8.86,4a4.16,4.16,0,0,1,1.76.76c-2.42.33-4.84.62-7.25,1a2.78,2.78,0,0,0-1.63.75,14,14,0,0,1-9.88,4.67c-5.55.47-11.13.57-16.69,1a66.91,66.91,0,0,0-8.07,1.12c-.88.18-2.21,1-2.28,1.59a3.25,3.25,0,0,0,1.36,2.61,61.76,61.76,0,0,0,9.15,4.53c4.76,1.73,8.36,4.43,9.8,9.46a7,7,0,0,1,.53,3c-.68,3.41,1.2,5.92,2.68,8.59a4.57,4.57,0,0,1,.62,2c-1.73-1.24-3.44-2.51-5.21-3.7a2.78,2.78,0,0,0-1.69-.59c-6.74.92-12.81-1.1-18.4-4.53a42.67,42.67,0,0,1-8.39-6.76,27.42,27.42,0,0,0-18.72-8.45,46.37,46.37,0,0,1-9.07-1.79c-5.46-1.51-8.26-10.31-2.61-14.59.61-.45,1.14-1,1.71-1.51a5.85,5.85,0,0,0,2.17-5.53,27.13,27.13,0,0,1,.06-6.43c.85-7.28,5.33-11.66,12.63-12a14.06,14.06,0,0,0,8.91-3.62c1.87-1.61,3.78-3.17,5.69-4.74a25.8,25.8,0,0,1,21-5.56C741.2,489.53,746,491,750.84,492.14Z" transform="translate(-34.18 -382.67)"/></svg>