<svg xmlns="http://www.w3.org/2000/svg" viewBox="0 0 370.93 297.53"><g id="Layer_2" data-name="Layer 2"><g id="zozaGC.tif"><path d="M193.85,536.19c-2.56-1.11-4.83-2-7-3.08s-4.19-1.64-6.57-.53a17.26,17.26,0,0,1-4.69,1.17,30.11,30.11,0,0,1-4.25.23c-1.71,0-3.44,0-5.15-.08s-3.56-.33-5.33-.57a22.75,22.75,0,0,1-3-.66,36.28,36.28,0,0,1-4.61-1.45c-3.06-1.34-6.07-2.79-9.05-4.28-1.69-.84-3.28-1.88-4.94-2.78-2.2-1.2-4.39-2.4-6.63-3.52a30.18,30.18,0,0,0-4.68-2,22.91,22.91,0,0,0-4.4-.67c-1.78-.17-3.57-.27-5.35-.3a27.22,27.22,0,0,0-3,.25l-4.32.39c-2,.17-4,.35-6,.48s-3.75.27-5.63.26a13.94,13.94,0,0,1-9.47-3.4,22.8,22.8,0,0,1-2.37-3.27c-1.33-1.68-1.48-3.76-2-5.71a7,7,0,0,1,1.05-5.21c1-1.89,2.38-3.62,3.54-5.45a22.81,22.81,0,0,0,1.92-3.44c.61-1.43.18-2.9-.22-4.35a81.25,81.25,0,0,1-2-7.91,29.33,29.33,0,0,1-.2-6.56,21.63,21.63,0,0,1,1-5.83,22.41,22.41,0,0,1,2.7-4.61c1.41-2.15,3.58-3.5,5.68-4.79a31.25,31.25,0,0,1,5.57-2.22,44.34,44.34,0,0,0,5.36-2.07,11.44,11.44,0,0,0,3.07-2.75c1.62-1.9,3.07-3.94,4.63-5.89s2.93-3.65,4.43-5.44,2.83-3.47,4.4-5.05a22.72,22.72,0,0,1,3.6-2.78c1.52-1,3.11-1.91,4.67-2.86a2.59,2.59,0,0,1,.47-.29c3.51-1.13,7-2.29,10.52-3.37a24.85,24.85,0,0,1,9.67-.78c.9.08,1.77.4,2.67.55a9.31,9.31,0,0,0,2.39.29c2-.18,4-.53,6-.76,2.26-.26,4.52-.48,6.78-.71l.08.33-6.72,4.9c-1.09.79-2,1.53-1.49,3.23a5,5,0,0,1-.71,3.05,29.3,29.3,0,0,1-6.49,8.25c-1.52,1.42-2.87,3-4.37,4.47-2.91,2.84-5.72,5.75-7.55,9.44a6.51,6.51,0,0,0,0,5.79,3.48,3.48,0,0,0,1.9,1.64,16.34,16.34,0,0,0,6.72.34c1.33-.15,2.69-.07,4-.09.19,0,.37,0,.56,0l5.7-.39c1-.07,2-.24,3.08-.25,2.14,0,4.28,0,6.42,0,1.66,0,3.32-.09,5,0,2.06.06,4.13.15,6.18.34a32.06,32.06,0,0,1,4.9.78c2.79.72,5.64,1.41,7.77,3.57a1.93,1.93,0,0,0,1.48.64c1.71,0,3.43,0,5.14.07.83,0,1.66,0,2.5,0l4.73,0c-.07.2-.07.3-.11.32a43.81,43.81,0,0,1-7.23,2.76,31.52,31.52,0,0,0-4.38,1.61,2,2,0,0,0-.89,1.06,14.62,14.62,0,0,1-3.52,4.7,24.4,24.4,0,0,1-5.63,3.87,39.41,39.41,0,0,1-9.25,3.41c-6.65,1.77-13.32,3.47-19.93,5.38-2.72.79-5.29,2.11-8,3.07a10.64,10.64,0,0,0-3.45,2.08,2.13,2.13,0,0,0-.31,3.22,10.09,10.09,0,0,0,4.67,2.72,51.59,51.59,0,0,0,9.57,2.17,64,64,0,0,1,8.18,1.35,19.28,19.28,0,0,1,5.56,2.58,20.45,20.45,0,0,1,4.5,4.11,30.42,30.42,0,0,1,2.68,4.9c.15.3.26.62.38.93a7.92,7.92,0,0,1,.87,2.71c-.19,2.5,1.06,4.17,2.64,5.83,1.78,1.86,3.43,3.85,5.11,5.81C193.65,535.28,193.66,535.61,193.85,536.19Z" transform="translate(-85.21 -300.56)"/><path d="M248.82,335.34c-1.79,1.86-3.53,3.76-5.36,5.56-1.27,1.24-2.71,2.32-4,3.55a3.37,3.37,0,0,0-1.29,2.46,9.94,9.94,0,0,1-1.77,5.19,32.08,32.08,0,0,1-6.85,7.48c-2.2,1.83-4.74,3.27-7.11,4.91-1.24.85-2.41,1.82-3.68,2.61-1.46.9-3,1.64-4.5,2.5-2,1.17-4,2.4-6,3.59-.83.49-1.72.87-2.49,1.43-1.92,1.4-3.75,2.91-5.68,4.3a5.69,5.69,0,0,0-2.19,3.42,2.26,2.26,0,0,0,1.71,2.79,13.52,13.52,0,0,0,4.74.4c1.81,0,3.62.13,5.43.23a45.5,45.5,0,0,1,5.24.36,21.54,21.54,0,0,1,6.32,2.13,22,22,0,0,1,5.66,4.11,21.41,21.41,0,0,1,2.51,3.55c.71,1.12,1.91,1.42,3,1.88,2.34,1,4.72,1.93,7.08,2.89V401a3.68,3.68,0,0,1-1,.33c-1.34.05-2.68,0-4,.05-1.75.06-3.5.09-5.22.29a17.24,17.24,0,0,0-3.36.85c-1.18.38-2.31,1-3.51,1.32a50.2,50.2,0,0,1-5.65,1.42c-1.81.31-3.66.33-5.49.48-1.13.1-2.27.28-3.4.32-1.84.06-3.69.12-5.53,0-2-.09-4.05-.25-6.05-.53-2.18-.3-4.34-.79-6.51-1.18s-4.39-.79-6.58-1.21c-1.42-.27-2.81-.74-4.24-.88-2.65-.27-5.32-.39-8-.54-3-.18-5.95-.39-8.93-.46a12.72,12.72,0,0,1-5-1.17,18,18,0,0,1-3.49-2.16,11.52,11.52,0,0,1-2.44-2.44c-1.07-1.47-1.87-3.14-2.94-4.61-1.41-1.95-1.76-4.24-2.26-6.47-.29-1.29-.25-2.66-.41-4-.08-.66-.35-1.3-.44-2-.29-2-1.69-3-3.35-3.87-2.8-1.44-5.49-3.08-8.3-4.46a16.23,16.23,0,0,1-5.58-4.69,10.56,10.56,0,0,1-2.25-7.48,12.5,12.5,0,0,1,2.94-6.73,44.51,44.51,0,0,1,4.83-5.42,71.87,71.87,0,0,1,6.29-4.79c1.45-1.07,2.95-2.07,4.45-3.07,1.31-.87,2.66-1.68,4-2.55a19.27,19.27,0,0,0,4.65-5c1.73-2.37,2.94-5.12,5.33-7.05a40.11,40.11,0,0,0,3.16-3.56c1.34-1.37,2.74-2.68,4.18-3.94,1.28-1.12,2.64-2.15,4-3.19a24,24,0,0,1,6-3.66c.83-.31,1.6-.78,2.42-1.11,2.14-.85,4.37-.52,6.58-.45a4,4,0,0,0,1.7-.45q1.68-.74,3.3-1.59c1.83-1,3.63-2,5.47-3,1.24-.66,2.51-1.26,3.78-1.85.16-.08.4,0,.61,0a2.76,2.76,0,0,1-.23.61c-2.36,3.36-4.77,6.69-7.06,10.1a2,2,0,0,0,.35,1.81,4.37,4.37,0,0,1,.49,5.16,50.3,50.3,0,0,1-3.63,5.18c-1.38,2-2.92,3.86-3.62,6.28a11.29,11.29,0,0,0,1,8.24c1.18,2.44,3.42,3.45,6.14,3.61,5.78.34,11-2,16.46-3.26,1.43-.33,2.79-1,4.22-1.39a89,89,0,0,1,9.51-2,29.22,29.22,0,0,1,6.66.24,9.56,9.56,0,0,1,5.7,3c.22.21.84.16,1.23.06,3.62-.92,7.24-1.88,10.86-2.83.45-.12.91-.18,1.37-.27Z" transform="translate(-85.21 -300.56)"/></g><g id="zozaGC.tif-2" data-name="zozaGC.tif"><path d="M401.18,598.09c-2.56-1.11-4.83-2-7-3.07s-4.19-1.65-6.57-.53a17.63,17.63,0,0,1-4.69,1.17,30.11,30.11,0,0,1-4.25.22c-1.71,0-3.44,0-5.15-.08s-3.56-.32-5.33-.56a22.79,22.79,0,0,1-3-.67,34.74,34.74,0,0,1-4.61-1.45c-3.06-1.34-6.07-2.79-9.05-4.28-1.69-.84-3.28-1.88-4.94-2.78-2.2-1.2-4.39-2.4-6.63-3.52a30.13,30.13,0,0,0-4.68-2,22.17,22.17,0,0,0-4.4-.68c-1.78-.16-3.57-.26-5.35-.3a27.22,27.22,0,0,0-3,.25l-4.32.39c-2,.17-4,.36-6,.49s-3.75.26-5.63.25a13.93,13.93,0,0,1-9.47-3.39,23.38,23.38,0,0,1-2.37-3.27c-1.33-1.69-1.48-3.77-2-5.71a7,7,0,0,1,1.05-5.22c1-1.89,2.38-3.61,3.54-5.44a22.43,22.43,0,0,0,1.92-3.45c.61-1.43.18-2.9-.22-4.34a81.44,81.44,0,0,1-2-7.92,29.26,29.26,0,0,1-.2-6.55,21.56,21.56,0,0,1,1-5.83,22.22,22.22,0,0,1,2.7-4.62c1.41-2.15,3.58-3.5,5.68-4.79a32,32,0,0,1,5.57-2.22,46,46,0,0,0,5.36-2.06,11.32,11.32,0,0,0,3.07-2.76c1.62-1.9,3.07-3.94,4.63-5.89s2.93-3.64,4.43-5.43,2.83-3.48,4.4-5.06a23.32,23.32,0,0,1,3.6-2.78c1.52-1,3.11-1.91,4.67-2.86a2.53,2.53,0,0,1,.47-.28c3.51-1.14,7-2.3,10.52-3.38a24.85,24.85,0,0,1,9.67-.78c.9.09,1.77.4,2.67.56a9.29,9.29,0,0,0,2.39.28c2-.18,4-.53,6-.76,2.26-.26,4.52-.47,6.78-.71l.08.34-6.72,4.89c-1.09.8-2,1.53-1.49,3.23a5,5,0,0,1-.71,3,29.3,29.3,0,0,1-6.49,8.25c-1.52,1.42-2.87,3-4.37,4.48-2.91,2.83-5.72,5.74-7.55,9.44a6.49,6.49,0,0,0,0,5.78,3.44,3.44,0,0,0,1.9,1.64,16.34,16.34,0,0,0,6.72.34c1.33-.15,2.69-.06,4-.09.19,0,.37,0,.56,0l5.7-.39c1-.07,2.05-.24,3.08-.25,2.14,0,4.28,0,6.42,0,1.66,0,3.32-.09,5,0,2.06.06,4.13.15,6.18.35a30.86,30.86,0,0,1,4.9.77c2.79.72,5.64,1.41,7.77,3.57a1.94,1.94,0,0,0,1.48.65c1.71,0,3.43,0,5.14.06.83,0,1.66,0,2.5,0l4.73,0c-.07.19-.07.29-.11.31a43,43,0,0,1-7.23,2.77,30.29,30.29,0,0,0-4.38,1.61,1.94,1.94,0,0,0-.89,1,14.62,14.62,0,0,1-3.52,4.7,23.8,23.8,0,0,1-5.63,3.87,39,39,0,0,1-9.25,3.41c-6.65,1.78-13.32,3.47-19.93,5.38-2.72.79-5.29,2.11-8,3.08a10.31,10.31,0,0,0-3.45,2.08,2.13,2.13,0,0,0-.31,3.22,10.07,10.07,0,0,0,4.67,2.71,50.79,50.79,0,0,0,9.57,2.17,62.31,62.31,0,0,1,8.18,1.36,19,19,0,0,1,5.56,2.58,20.16,20.16,0,0,1,4.5,4.1,30.52,30.52,0,0,1,2.68,4.91,9.35,9.35,0,0,1,.38.92,8,8,0,0,1,.87,2.72c-.19,2.49,1.06,4.16,2.64,5.82,1.78,1.87,3.43,3.85,5.11,5.81C401,597.18,401,597.51,401.18,598.09Z" transform="translate(-85.21 -300.56)"/><path d="M456.15,397.25c-1.79,1.85-3.53,3.75-5.36,5.55-1.27,1.25-2.71,2.32-4,3.55a3.39,3.39,0,0,0-1.29,2.47,9.88,9.88,0,0,1-1.77,5.18,31.69,31.69,0,0,1-6.85,7.48c-2.2,1.84-4.74,3.28-7.11,4.91-1.24.85-2.41,1.82-3.68,2.61-1.46.9-3,1.64-4.5,2.5-2,1.17-4,2.4-6,3.59-.83.49-1.72.88-2.49,1.44-1.92,1.39-3.75,2.9-5.68,4.29a5.69,5.69,0,0,0-2.19,3.43,2.27,2.27,0,0,0,1.71,2.79,13.76,13.76,0,0,0,4.74.39c1.81,0,3.62.13,5.43.23a43.37,43.37,0,0,1,5.24.37,19.08,19.08,0,0,1,14.49,9.78c.71,1.13,1.91,1.42,3,1.88,2.34,1,4.72,1.94,7.08,2.89v.34a4.49,4.49,0,0,1-1,.33c-1.34,0-2.68,0-4,0-1.75.06-3.5.09-5.22.3a17.22,17.22,0,0,0-3.36.84c-1.19.39-2.31,1-3.51,1.32a48.13,48.13,0,0,1-5.65,1.42c-1.81.31-3.66.33-5.49.49-1.13.1-2.27.28-3.4.31-1.84.07-3.69.12-5.53,0-2-.09-4.05-.25-6.05-.53-2.18-.3-4.34-.78-6.51-1.18s-4.39-.79-6.58-1.21c-1.42-.27-2.81-.73-4.24-.88-2.65-.27-5.32-.38-8-.54-3-.17-5.95-.39-8.93-.46a12.72,12.72,0,0,1-5-1.17,18.4,18.4,0,0,1-3.49-2.15,12,12,0,0,1-2.44-2.44c-1.07-1.48-1.87-3.14-2.94-4.61-1.41-1.95-1.76-4.25-2.26-6.48-.29-1.29-.25-2.65-.41-4-.08-.66-.35-1.3-.44-2-.29-2-1.69-3-3.35-3.87-2.8-1.44-5.49-3.09-8.3-4.47a16.23,16.23,0,0,1-5.58-4.69,10.55,10.55,0,0,1-2.25-7.48,12.56,12.56,0,0,1,2.94-6.73,45.27,45.27,0,0,1,4.83-5.42A71.87,71.87,0,0,1,347,403c1.45-1.06,2.95-2.07,4.45-3.07,1.31-.87,2.66-1.67,4-2.55a19.27,19.27,0,0,0,4.65-5c1.73-2.37,2.94-5.12,5.33-7a41.57,41.57,0,0,0,3.16-3.56c1.34-1.38,2.74-2.69,4.18-3.95,1.28-1.12,2.64-2.15,4-3.19a24,24,0,0,1,6-3.65c.83-.32,1.6-.79,2.42-1.11,2.14-.86,4.37-.53,6.58-.45a4.3,4.3,0,0,0,1.7-.45c1.12-.49,2.22-1,3.3-1.6,1.83-1,3.63-2,5.47-3,1.24-.66,2.51-1.25,3.78-1.85.16-.08.4,0,.61,0a2.76,2.76,0,0,1-.23.61c-2.36,3.36-4.77,6.69-7.06,10.11a2,2,0,0,0,.35,1.81,4.35,4.35,0,0,1,.49,5.15,49.23,49.23,0,0,1-3.63,5.18c-1.38,2-2.92,3.86-3.62,6.28a11.29,11.29,0,0,0,1,8.24c1.18,2.44,3.42,3.45,6.14,3.61,5.78.35,11-2,16.46-3.25,1.43-.34,2.79-1,4.22-1.39a89,89,0,0,1,9.51-2.06,28.67,28.67,0,0,1,6.66.25,9.49,9.49,0,0,1,5.7,3c.22.22.84.16,1.23.06,3.62-.92,7.24-1.88,10.86-2.82.45-.12.91-.19,1.37-.28Z" transform="translate(-85.21 -300.56)"/></g></g></svg>