<svg id="Layer_1" data-name="Layer 1" xmlns="http://www.w3.org/2000/svg" viewBox="0 0 195.02 215.36"><path d="M438.89,321.79c-.38.54-.6.87-.84,1.19-2.68,3.5-5.38,7-8,10.52a17.81,17.81,0,0,0-1.36,2.09,5,5,0,0,0-.64,3.12,59.46,59.46,0,0,1-4.68,29,94.3,94.3,0,0,1-15.84,25,109.44,109.44,0,0,1-9.38,9.52,64.1,64.1,0,0,0-20.35,35.83c-.64,3.22-1,6.49-1.48,9.75a96.36,96.36,0,0,1-2.88,13.53c-.59,2.08-1.26,4.14-1.85,6.22a17.06,17.06,0,0,1-6.78,9.45,21.68,21.68,0,0,1-18.83,3.58,17.9,17.9,0,0,1-9.63-6.55c-1.5-1.9-3-3.78-4.59-5.61a13.53,13.53,0,0,0-8.54-5,20.5,20.5,0,0,0-4.36-.08,58.9,58.9,0,0,1-9.85-.08,56.58,56.58,0,0,1-11.4-2,31.38,31.38,0,0,1-12.84-7.19,27.91,27.91,0,0,1-8.33-16,49.13,49.13,0,0,1-.68-7.45,34.12,34.12,0,0,0-7.67-21.07q-5.69-7.29-11.32-14.62A60.89,60.89,0,0,1,245,369.25a64.34,64.34,0,0,1-.95-16.91c.57-8.14,2.56-16,4.74-23.83,1.74-6.25,3.58-12.47,5.39-18.7.07-.26.2-.51.37-.94.24.58.42,1,.59,1.41,1.33,3.27,2.64,6.56,4,9.82a16,16,0,0,0,1.32,2.4,2.51,2.51,0,0,0,1.85,1.13,12.45,12.45,0,0,1,7.08,3.67,29,29,0,0,1,3.68,4.39c2.84,4.36,5.58,8.78,8.26,13.24a146.57,146.57,0,0,0,8.07,12.61c1.67,2.23,3.52,4.33,5.4,6.38a12,12,0,0,0,5.08,3.31,6.89,6.89,0,0,0,8-2.38,11.82,11.82,0,0,0,2.23-4.57c.93-3.88,1.82-7.77,2.71-11.67,2.5-10.94,4.92-21.91,7.54-32.83a83.52,83.52,0,0,1,3.26-9.81c1.19-3.2,2.59-6.31,3.9-9.46a13.25,13.25,0,0,1,4.5-6,17,17,0,0,0,6-8.42c1.05-3.06,1.84-6.21,2.74-9.33.41-1.39.78-2.8,1.22-4.19a6.06,6.06,0,0,1,1.49-2.53c.11.73.21,1.27.27,1.82.53,5.13,1,10.27,1.57,15.4a7.79,7.79,0,0,0,2.4,5.05,31.4,31.4,0,0,1,9,17.31,85.67,85.67,0,0,1,1,14.31c.15,6.95.18,13.91.32,20.86.11,5,.22,10,.47,15a149.07,149.07,0,0,0,1.77,15.75,10.88,10.88,0,0,0,1.95,4.68,2.86,2.86,0,0,0,3.36,1.24,8.07,8.07,0,0,0,5.14-3.64A168.24,168.24,0,0,0,381.16,355c1.18-2.66,2.34-5.33,3.61-7.95a35,35,0,0,1,4.28-6.58,30.31,30.31,0,0,1,16.66-10.59c1.53-.38,3.06-.8,4.61-1a7.75,7.75,0,0,1,2.84,0,18.21,18.21,0,0,0,11.47-1.2c3-1.33,6-2.94,8.95-4.38a27.42,27.42,0,0,1,3.36-1.3A10.22,10.22,0,0,1,438.89,321.79Z" transform="translate(-243.87 -266.05)"/></svg>